<svg xmlns="http://www.w3.org/2000/svg" version="1.1" xmlns:xlink="http://www.w3.org/1999/xlink" width="24" height="24"><svg width="24" height="24" viewBox="0 0 24 24" fill="none" stroke="currentColor" stroke-width="2" stroke-linecap="round" stroke-linejoin="round" class="lucide lucide-audio-waveform-icon lucide-audio-waveform" version="1.1" id="SvgjsSvg1080" sodipodi:docname="audio-waveform.svg" inkscape:version="1.4.2 (f4327f4, 2025-05-13)" xmlns:inkscape="http://www.inkscape.org/namespaces/inkscape" xmlns:sodipodi="http://sodipodi.sourceforge.net/DTD/sodipodi-0.dtd" xmlns="http://www.w3.org/2000/svg" xmlns:svg="http://www.w3.org/2000/svg">
  <defs id="SvgjsDefs1079"></defs>
  <sodipodi:namedview id="SvgjsSodipodi:namedview1078" pagecolor="#ffffff" bordercolor="#000000" borderopacity="0.25" inkscape:showpageshadow="2" inkscape:pageopacity="0.0" inkscape:pagecheckerboard="0" inkscape:deskcolor="#d1d1d1" inkscape:zoom="33.625" inkscape:cx="12" inkscape:cy="12" inkscape:window-width="1920" inkscape:window-height="1009" inkscape:window-x="-8" inkscape:window-y="-8" inkscape:window-maximized="1" inkscape:current-layer="svg1"></sodipodi:namedview>
  <path style="baseline-shift:baseline;display:inline;overflow:visible;vector-effect:none;fill:#1c398e;stroke:none;stroke-linecap:butt;stroke-linejoin:miter;enable-background:accumulate;stop-color:#000000;stop-opacity:1;opacity:1;fill-opacity:1" d="M 14,1 C 13.277778,1 12.542119,1.2353472 11.960938,1.7519531 11.379756,2.268559 11,3.0833335 11,4 v 16 c 0,0.416666 -0.120244,0.601893 -0.289062,0.751953 C 10.542119,20.902014 10.277778,21 10,21 9.7222221,21 9.4578806,20.902014 9.2890625,20.751953 9.1202444,20.601893 9,20.416666 9,20 V 7 C 9,6.0833335 8.6202444,5.268559 8.0390625,4.7519531 7.4578806,4.2353472 6.7222221,4 6,4 5.2777779,4 4.5421194,4.2353472 3.9609375,4.7519531 3.3797556,5.268559 3,6.0833335 3,7 v 4 c 0,0.564129 -0.4358706,1 -1,1 a 1,1 0 0 0 -1,1 1,1 0 0 0 1,1 c 1.6450096,0 3,-1.35499 3,-3 V 7 C 5,6.5833337 5.1202444,6.3981073 5.2890625,6.2480469 5.4578806,6.0979864 5.7222221,6 6,6 6.2777779,6 6.5421194,6.0979864 6.7109375,6.2480469 6.8797556,6.3981073 7,6.5833337 7,7 v 13 c 0,0.916666 0.3797556,1.731441 0.9609375,2.248047 C 8.5421194,22.764653 9.2777779,23 10,23 10.722222,23 11.457881,22.764653 12.039063,22.248047 12.620244,21.731441 13,20.916666 13,20 V 4 C 13,3.5833337 13.120244,3.3981073 13.289063,3.2480469 13.457881,3.0979864 13.722222,3 14,3 14.277778,3 14.542119,3.0979864 14.710938,3.2480469 14.879756,3.3981073 15,3.5833337 15,4 v 13 c 0,0.916666 0.379756,1.731441 0.960938,2.248047 C 16.542119,19.764653 17.277778,20 18,20 18.722222,20 19.457881,19.764653 20.039062,19.248047 20.620244,18.731441 21,17.916666 21,17 v -4 c 0,-0.564129 0.435871,-1 1,-1 a 1,1 0 0 0 1,-1 1,1 0 0 0 -1,-1 c -1.64501,0 -3,1.35499 -3,3 v 4 c 0,0.416666 -0.120244,0.601893 -0.289063,0.751953 C 18.542119,17.902014 18.277778,18 18,18 17.722222,18 17.457881,17.902014 17.289062,17.751953 17.120244,17.601893 17,17.416666 17,17 V 4 C 17,3.0833335 16.620244,2.268559 16.039062,1.7519531 15.457881,1.2353472 14.722222,1 14,1 Z" id="SvgjsPath1077"></path>
</svg><style>@media (prefers-color-scheme: light) { :root { filter: none; } }
@media (prefers-color-scheme: dark) { :root { filter: none; } }
</style></svg>